<svg width="98" height="90" viewBox="0 0 98 90" fill="none" xmlns="http://www.w3.org/2000/svg">
<path d="M94.8723 12.24L50.0426 0C49.3475 0 48.6525 0 47.9574 0L3.12766 12.24C1.04255 12.6 0 14.4 0 16.56C3.8227 46.8 21.1986 74.16 46.9149 89.28C47.6099 89.64 48.305 90 49 90C49.695 90 50.3901 89.64 51.0851 89.28C76.4539 74.16 94.1773 46.8 98 16.56C98 14.4 96.9575 12.6 94.8723 12.24ZM49 81C41.7021 76.32 34.7518 70.56 29.1915 63.72H29.539H42.3972H55.2553H68.1135H68.461C63.2482 70.56 56.2979 76.32 49 81ZM59.4255 32.04V21.96H64.6383V55.8H59.4255V32.04ZM51.4326 55.8H46.2199V39.96V36H51.4326V55.8ZM38.5745 55.8H33.3617V44.28H38.5745V55.8ZM72.2837 59.4V18C72.2837 15.84 70.5461 14.04 68.461 14.04H55.6028C53.5177 14.04 51.7801 15.84 51.7801 18V28.08H42.7447C40.6596 28.08 38.922 29.88 38.922 32.04V36H29.8865C27.8014 36 26.0638 37.8 26.0638 39.96V59.4C16.6808 47.52 10.7731 33.84 8.34043 19.08L49 8.28L89.6596 19.08C87.227 33.84 81.3192 47.52 72.2837 59.4Z" fill="white"/>
</svg>
