<svg width="95" height="83" viewBox="0 0 95 83" fill="none" xmlns="http://www.w3.org/2000/svg">
<path d="M81.2 28.72L76.7 27.42L64.5 43.62C62.8 45.82 60.2 47.22 57.4 47.22C56.6 47.22 55.8 47.12 55.1 46.92L5.2 33.32L3.1 41.02C2.6 43.02 3.7 45.12 5.8 45.62L34 53.32V68.82C34 71.52 31.8 73.82 29 73.82H4.5C2 73.82 0 75.82 0 78.32C0 80.82 2 82.82 4.5 82.82H28.9C36.6 82.82 42.9 76.52 42.9 68.82V55.82L71.6 63.62C73.6 64.12 75.6 63.02 76.2 60.92L83.7 33.22C84.3 31.32 83.1 29.22 81.2 28.72Z" fill="white"/>
<path d="M92.2 40.72L88.6 39.72C87.9 39.52 87.3 39.92 87.1 40.62L82.8 56.32C82.6 57.02 83 57.62 83.7 57.82L87.3 58.82C89.3 59.32 91.4 58.22 91.9 56.22L94.8 45.42C95.4 43.32 94.2 41.32 92.2 40.72Z" fill="white"/>
<path d="M4.80003 27.92L56.4 41.92C57.9 42.32 59.5 41.82 60.4 40.52L74.1 22.22C75.7 20.12 74.6 17.02 72.1 16.32L12.3 0.120005C10.3 -0.379995 8.20003 0.720005 7.70003 2.72001L2.10003 23.32C1.60003 25.32 2.80003 27.32 4.80003 27.92Z" fill="white"/>
</svg>
