<svg width="82" height="102" viewBox="0 0 82 102" fill="none" xmlns="http://www.w3.org/2000/svg">
<g clip-path="url(#clip0_69_1445)">
<path d="M74.7396 12.886H70.8788V9.04399C70.8788 8.10899 70.11 7.34399 69.1704 7.34399C68.2309 7.34399 67.4621 8.10899 67.4621 9.04399V12.886H63.6013C62.6617 12.886 61.8929 13.651 61.8929 14.586C61.8929 15.521 62.6617 16.286 63.6013 16.286H67.4621V20.128C67.4621 21.063 68.2309 21.828 69.1704 21.828C70.11 21.828 70.8788 21.063 70.8788 20.128V16.286H74.7396C75.6792 16.286 76.4479 15.521 76.4479 14.586C76.4479 13.651 75.6792 12.886 74.7396 12.886Z" fill="white"/>
<path d="M59.2842 39.945C62.0687 37.616 63.8283 34.114 63.8283 30.204C63.8283 23.234 58.2079 17.556 51.3062 17.556C48.18 17.556 45.1904 18.763 42.9183 20.837C40.2362 16.06 35.1454 13 29.525 13C21.0517 13 14.15 19.868 14.15 28.3C14.15 33.587 16.8663 38.262 20.9662 40.999C13.4496 43.192 8 49.465 8 56.86V72.058C8 72.993 8.76875 73.758 9.70833 73.758H49.3417C50.2812 73.758 51.05 72.993 51.05 72.058V68.913H68.9704C69.91 68.913 70.6788 68.148 70.6788 67.213V54.089C70.6788 47.289 65.8271 41.577 59.2842 39.928V39.945ZM51.3062 20.939C56.3287 20.939 60.4117 25.087 60.4117 30.187C60.4117 35.287 56.3287 39.435 51.3062 39.435C48.0433 39.435 45.0367 37.633 43.4137 34.794C43.4479 34.726 43.4821 34.641 43.5163 34.556C43.67 34.216 43.8067 33.893 43.9433 33.553C44.08 33.196 44.1996 32.839 44.3021 32.465C44.3533 32.295 44.4046 32.142 44.4387 31.972C44.7462 30.765 44.9171 29.541 44.9171 28.283C44.9171 28.062 44.8829 27.841 44.8658 27.62C44.8658 27.331 44.8317 27.042 44.7975 26.753C44.7633 26.464 44.7292 26.192 44.695 25.903C44.6096 25.41 44.5071 24.934 44.3875 24.441C44.3704 24.373 44.3704 24.305 44.3363 24.237C46.0617 22.163 48.6071 20.939 51.3062 20.939ZM41.0562 42.104C40.0825 41.645 39.0746 41.288 38.0325 40.999C39.3137 40.149 40.4583 39.112 41.4492 37.905C42.3887 39.129 43.5333 40.166 44.8146 40.965C43.9433 41.458 43.1233 42.07 42.3204 42.767C41.9104 42.546 41.5004 42.308 41.0562 42.087V42.104ZM17.5667 28.283C17.5667 21.721 22.9308 16.383 29.525 16.383C34.6158 16.383 39.1429 19.613 40.8171 24.407C41.2612 25.682 41.4833 26.991 41.4833 28.283C41.4833 29.575 41.2612 30.765 40.8683 31.955C40.6292 32.635 40.3558 33.315 39.9971 33.944C39.98 33.978 39.9971 34.029 39.9629 34.063C37.9471 37.667 34.2058 39.945 30.1058 40.149H28.7221C22.5038 39.741 17.5496 34.59 17.5496 28.283H17.5667ZM47.6333 70.358H11.4338V56.86C11.4338 49.516 18.3696 43.549 26.8771 43.549H28.7392C28.9954 43.549 29.2687 43.583 29.525 43.583C29.73 43.583 29.9179 43.549 30.1229 43.549H32.19C34.7867 43.549 37.3321 44.11 39.5871 45.181C44.0629 47.289 46.9671 49.992 47.6333 56.945V70.358ZM67.2621 65.513H51.05V56.86C51.05 56.86 51.05 56.758 51.05 56.707C50.5375 51.267 48.795 47.527 45.3271 44.739C47.1721 43.345 48.7438 42.852 51.2208 42.852H55.4233C61.9662 42.852 67.2792 47.901 67.2792 54.106V65.53L67.2621 65.513Z" fill="white"/>
</g>
<defs>
<clipPath id="clip0_69_1445">
<rect width="82" height="102" fill="white"/>
</clipPath>
</defs>
</svg>
