<svg width="73" height="95" viewBox="0 0 73 95" fill="none" xmlns="http://www.w3.org/2000/svg">
<path d="M50.9601 11.2403L50.9252 11.2693L50.8932 11.3014C49.7445 12.4518 49.7445 14.4522 50.8932 15.6026L57.1156 21.8346L57.1268 21.8458V22.432H57.4304V22.584H58.3192L58.471 22.736H58.8857H59.0374H59.1892H59.341H59.4927H59.6445H59.7963H60.7963V22.584H61.2516V22.0485C61.3431 21.9802 61.4361 21.8894 61.5156 21.77C61.5356 21.7399 61.5539 21.7092 61.5706 21.6782L67.637 15.6026C68.7856 14.4522 68.7856 12.4518 67.637 11.3014C66.4558 10.1185 64.6487 10.2023 63.405 11.2403L63.3701 11.2693L63.3381 11.3014L62.3139 12.3272V7.6C62.3139 5.98516 60.9571 4.624 59.341 4.624C57.622 4.624 56.2162 5.93741 56.2162 7.6V12.3272L55.1921 11.3014C54.0109 10.1185 52.2038 10.2023 50.9601 11.2403ZM6.82952 56.176H7.82952V55.176V8.144H40.3507C39.9537 9.53686 39.7342 10.966 39.6009 12.376H13.052H12.052V13.376V55.176V56.176H13.052H55.2432H56.2432V55.176V33.1287C57.2745 33.2934 58.3072 33.376 59.341 33.376H59.3688C59.6786 33.376 60.0551 33.376 60.4657 33.3519V55.176V56.176H61.4657H66.7775C66.8992 56.176 67.0496 56.2296 67.1654 56.3302C67.2784 56.4282 67.2952 56.5109 67.2952 56.544V74.48C67.2952 74.5353 67.2576 74.6739 67.1133 74.8184C66.9689 74.963 66.8312 75 66.7775 75H1.3659C1.33458 75 1.25266 74.984 1.15458 74.8706C1.05408 74.7545 1 74.6032 1 74.48V56.544C1 56.3348 1.1608 56.176 1.3659 56.176H6.82952ZM59.341 1C66.231 1 72 6.63805 72 13.68C72 20.5772 66.2238 26.36 59.341 26.36C52.3135 26.36 46.6819 20.5844 46.6819 13.68C46.6819 6.63084 52.3063 1 59.341 1ZM40.1559 30.032H48.2438C48.6346 30.3009 49.0205 30.5183 49.3867 30.7097V39.28H40.1559V30.032ZM18.9085 30.032H28.1393V39.28H18.9085V30.032Z" stroke="white" stroke-width="2"/>
</svg>
